HIERARCHY
ROOT Hips
{
	OFFSET 0.000000 0.000000 0.000000
	CHANNELS 6 Xposition Yposition Zposition Zrotation Yrotation Xrotation 
	JOINT LowerBack
	{
		OFFSET 0.000000 0.000000 0.000000
		CHANNELS 3 Zrotation Yrotation Xrotation
		JOINT Spine
		{
			OFFSET 0.028270 2.035590 -0.193380
			CHANNELS 3 Zrotation Yrotation Xrotation
			JOINT Spine1
			{
				OFFSET 0.056720 2.048850 -0.042750
				CHANNELS 3 Zrotation Yrotation Xrotation
				JOINT Neck
				{
					OFFSET 0.000000 0.000000 0.000000
					CHANNELS 3 Zrotation Yrotation Xrotation
					JOINT Neck1
					{
						OFFSET -0.054170 1.746240 0.172020
						CHANNELS 3 Zrotation Yrotation Xrotation
						JOINT Head
						{
							OFFSET 0.104070 1.761360 -0.123970
							CHANNELS 3 Zrotation Yrotation Xrotation
							End Site
							{
								OFFSET 0.000000 0.000000 0.000000
							}
						}
					}
				}
				JOINT LeftShoulder
				{
					OFFSET 0.000000 0.000000 0.000000
					CHANNELS 3 Zrotation Yrotation Xrotation
					JOINT LeftArm
					{
						OFFSET 3.362410 1.200890 -0.311210
						CHANNELS 3 Zrotation Yrotation Xrotation
						JOINT LeftForeArm
						{
							OFFSET 4.983000 -0.000000 -0.000000
							CHANNELS 3 Zrotation Yrotation Xrotation
							JOINT LeftHand
							{
								OFFSET 3.483560 -0.000000 -0.000000
								CHANNELS 3 Zrotation Yrotation Xrotation
								JOINT LeftFingerBase
								{
									OFFSET 0.000000 0.000000 0.000000
									CHANNELS 3 Zrotation Yrotation Xrotation
									JOINT LeftHandIndex1
									{
										OFFSET 0.715260 -0.000000 -0.000000
										CHANNELS 3 Zrotation Yrotation Xrotation
										End Site
										{
											OFFSET 0.000000 0.000000 0.000000
										}
									}
								}
								JOINT LThumb
								{
									OFFSET 0.000000 0.000000 0.000000
									CHANNELS 3 Zrotation Yrotation Xrotation
									End Site
									{
										OFFSET 0.000000 0.000000 0.000000
									}
								}
							}
						}
					}
				}
				JOINT RightShoulder
				{
					OFFSET 0.000000 0.000000 0.000000
					CHANNELS 3 Zrotation Yrotation Xrotation
					JOINT RightArm
					{
						OFFSET -3.136600 1.374050 -0.404650
						CHANNELS 3 Zrotation Yrotation Xrotation
						JOINT RightForeArm
						{
							OFFSET -5.241900 -0.000000 -0.000000
							CHANNELS 3 Zrotation Yrotation Xrotation
							JOINT RightHand
							{
								OFFSET -3.444170 -0.000000 -0.000000
								CHANNELS 3 Zrotation Yrotation Xrotation
								JOINT RightFingerBase
								{
									OFFSET 0.000000 0.000000 0.000000
									CHANNELS 3 Zrotation Yrotation Xrotation
									JOINT RightHandIndex1
									{
										OFFSET -0.622530 -0.000000 -0.000000
										CHANNELS 3 Zrotation Yrotation Xrotation
										End Site
										{
											OFFSET 0.000000 0.000000 0.000000
										}
									}
								}
								JOINT RThumb
								{
									OFFSET 0.000000 0.000000 0.000000
									CHANNELS 3 Zrotation Yrotation Xrotation
									End Site
									{
										OFFSET 0.000000 0.000000 0.000000
									}
								}
							}
						}
					}
				}
			}
		}
	}
}
}
MOTION
Frames: 17
Frame Time: 0.008333
-11.791840 16.876790 -2.514928 39.129020 86.102649 50.627644 -5.443541 -0.614818 -2.635989 -2.146623 -0.395891 -3.696315 -7.881435 -0.567207 -0.254238 12.030399 -1.810935 -5.790520 -4.797359 -0.383703 0.405759 0.000000 0.000000 0.000000 -5.167274 8.465153 2.216328 -65.897822 5.844488 8.084026 -3.666750 -17.865915 -0.002978 2.333765 3.674660 0.077521 -0.064830 -0.023028 -0.000000 0.000000 0.000000 0.000000 0.000000 0.000000 0.000000 22.825742 2.563886 0.907047 70.833633 15.033384 6.430131 2.837400 25.969971 0.010853 1.429778 7.702345 0.096173 0.041451 -0.152288 0.000000 0.000000 0.000000 0.000000 0.000000 0.000000 0.000000 
-11.622816 16.896906 -2.519761 41.124606 85.947285 52.585579 -5.711161 -0.701442 -2.628383 -2.199894 -0.463034 -3.694607 -7.887102 -0.635376 -0.259847 12.082434 -1.879599 -5.788916 -4.796769 -0.383848 0.404923 0.000000 0.000000 0.000000 -5.004092 8.217677 2.224750 -65.973745 5.614085 8.257782 -3.684725 -17.616830 -0.003251 2.243319 3.784102 0.076824 -0.065487 -0.021085 -0.000000 0.000000 0.000000 0.000000 0.000000 0.000000 0.000000 22.889889 2.413202 0.908575 71.101579 14.471418 6.006995 2.834173 25.532108 0.010582 1.426596 7.547765 0.093957 0.041236 -0.148470 0.000000 0.000000 0.000000 0.000000 0.000000 0.000000 0.000000 
-11.458441 16.916391 -2.526467 42.124440 85.755623 53.574300 -5.932289 -0.773584 -2.624614 -2.241749 -0.519097 -3.693631 -7.886714 -0.692829 -0.265914 12.105923 -1.939064 -5.788011 -4.793486 -0.383735 0.404289 0.000000 0.000000 0.000000 -4.872750 7.971625 2.233662 -66.052832 5.330660 8.490477 -3.697896 -17.407211 -0.003506 2.160635 3.882248 0.075928 -0.066084 -0.018940 -0.000000 0.000000 0.000000 0.000000 0.000000 0.000000 0.000000 22.910832 2.276532 0.915358 71.348935 13.943648 5.633188 2.834522 25.099374 0.010355 1.435025 7.387371 0.092542 0.041132 -0.144765 0.000000 0.000000 0.000000 0.000000 0.000000 0.000000 0.000000 
-11.298609 16.935313 -2.534799 42.282893 85.537696 53.738631 -6.107259 -0.834153 -2.618887 -2.272453 -0.566831 -3.692206 -7.882277 -0.742200 -0.272388 12.106322 -1.987753 -5.786816 -4.788999 -0.383471 0.403963 0.000000 0.000000 0.000000 -4.770860 7.729841 2.243263 -66.129883 4.994939 8.782684 -3.706164 -17.238123 -0.003731 2.093326 3.963364 0.075234 -0.066602 -0.016623 -0.000000 0.000000 0.000000 0.000000 0.000000 0.000000 0.000000 22.900918 2.154047 0.926838 71.569287 13.450872 5.314350 2.838683 24.672141 0.010177 1.460406 7.225279 0.092126 0.041086 -0.141158 0.000000 0.000000 0.000000 0.000000 0.000000 0.000000 0.000000 
-11.143029 16.953943 -2.544415 41.764159 85.298750 53.231998 -6.238324 -0.885517 -2.605262 -2.292964 -0.608372 -3.689640 -7.876067 -0.785553 -0.280999 12.089538 -2.019767 -5.782091 -4.784993 -0.383200 0.404652 0.000000 0.000000 0.000000 -4.694599 7.490474 2.254146 -66.199714 4.615951 9.128581 -3.709578 -17.112579 -0.003915 2.048213 4.022804 0.074740 -0.067023 -0.014183 -0.000000 0.000000 0.000000 0.000000 0.000000 0.000000 0.000000 22.872787 2.050675 0.942657 71.759144 12.985961 5.041502 2.846478 24.253066 0.010051 1.509544 7.064697 0.093211 0.041000 -0.137638 0.000000 0.000000 0.000000 0.000000 0.000000 0.000000 0.000000 
-10.991330 16.972636 -2.555282 40.663545 85.045506 52.140782 -6.320473 -0.928906 -2.579665 -2.302781 -0.645294 -3.685298 -7.869960 -0.824313 -0.292010 12.059393 -2.035038 -5.772474 -4.782660 -0.383020 0.406704 0.000000 0.000000 0.000000 -4.645477 7.253454 2.265938 -66.257292 4.200303 9.521469 -3.707895 -17.032518 -0.004056 2.030516 4.058333 0.074650 -0.067326 -0.011655 -0.000000 0.000000 0.000000 0.000000 0.000000 0.000000 0.000000 22.835290 1.965333 0.962306 71.913329 12.547800 4.812833 2.858306 23.840047 0.009978 1.583533 6.909944 0.095696 0.040869 -0.134189 -0.000000 0.000000 0.000000 0.000000 0.000000 0.000000 0.000000 
-10.843035 16.991730 -2.566922 39.190232 84.778726 50.665949 -6.363824 -0.967912 -2.537596 -2.304578 -0.680402 -3.677134 -7.865587 -0.860931 -0.300702 12.024306 -2.044549 -5.762542 -4.782928 -0.382947 0.408663 0.000000 0.000000 0.000000 -4.614749 7.034042 2.277072 -66.298658 3.732857 9.966196 -3.701944 -16.985338 -0.004153 2.044092 4.068659 0.075359 -0.067554 -0.009029 -0.000000 0.000000 0.000000 0.000000 0.000000 0.000000 0.000000 22.804399 1.885160 0.983416 72.029202 12.146333 4.637345 2.873747 23.428306 0.009948 1.677801 6.763372 0.099380 0.040722 -0.130760 -0.000000 0.000000 0.000000 0.000000 0.000000 0.000000 0.000000 
-10.697751 17.011576 -2.579541 37.387513 84.507653 48.844839 -6.357295 -1.002832 -2.477965 -2.296548 -0.714820 -3.666271 -7.864030 -0.896591 -0.311977 11.983570 -2.040556 -5.745518 -4.786416 -0.383098 0.412542 0.000000 0.000000 0.000000 -4.606525 6.812626 2.288600 -66.321815 3.242991 10.437612 -3.691424 -16.982861 -0.004215 2.089470 4.055429 0.076672 -0.067677 -0.006361 -0.000000 0.000000 0.000000 0.000000 0.000000 0.000000 0.000000 22.778951 1.816530 1.006729 72.106776 11.766246 4.489581 2.892859 23.019442 0.009954 1.791727 6.627961 0.104066 0.040536 -0.127367 -0.000000 0.000000 0.000000 0.000000 0.000000 0.000000 0.000000 
-10.554990 17.032406 -2.592754 35.428526 84.236423 46.846827 -6.309051 -1.037267 -2.399156 -2.280726 -0.751502 -3.651496 -7.865782 -0.933987 -0.322294 11.942152 -2.029457 -5.724357 -4.793130 -0.383440 0.417417 0.000000 0.000000 0.000000 -4.612300 6.601206 2.299828 -66.326639 2.717026 10.938757 -3.677501 -17.011617 -0.004251 2.165182 4.021488 0.078683 -0.067765 -0.003605 -0.000000 0.000000 0.000000 0.000000 0.000000 0.000000 0.000000 22.765866 1.751235 1.029686 72.148113 11.407831 4.358698 2.914791 22.614682 0.009985 1.920124 6.502255 0.109550 0.040322 -0.123970 -0.000000 0.000000 0.000000 0.000000 0.000000 0.000000 0.000000 
-10.414362 17.054295 -2.606482 33.403697 83.973814 44.760792 -6.218961 -1.073385 -2.301232 -2.257291 -0.792586 -3.633028 -7.870877 -0.975207 -0.332475 11.900893 -2.011237 -5.697256 -4.802781 -0.383970 0.423835 0.000000 0.000000 0.000000 -4.628573 6.393390 2.311266 -66.313930 2.162698 11.457588 -3.660963 -17.070535 -0.004277 2.266785 3.970745 0.081197 -0.067861 -0.000751 -0.000000 0.000000 0.000000 0.000000 0.000000 0.000000 0.000000 22.764102 1.687527 1.051432 72.157348 11.062781 4.223416 2.938816 22.217241 0.010021 2.057103 6.385552 0.115335 0.040092 -0.120569 -0.000000 0.000000 0.000000 0.000000 0.000000 0.000000 0.000000 
-10.275463 17.077239 -2.620709 31.377611 83.730491 42.653692 -6.086705 -1.113277 -2.188036 -2.226224 -0.840174 -3.611567 -7.878872 -1.022336 -0.342570 11.859816 -1.990877 -5.663726 -4.814638 -0.384655 0.432073 0.000000 0.000000 0.000000 -4.651757 6.180613 2.322847 -66.286556 1.589797 11.981285 -3.642426 -17.160204 -0.004304 2.388246 3.907293 0.083911 -0.067997 0.002194 -0.000000 0.000000 0.000000 0.000000 0.000000 0.000000 0.000000 22.770641 1.618407 1.071306 72.138079 10.727039 4.072805 2.964370 21.827999 0.010051 2.192533 6.278048 0.120920 0.039913 -0.117170 -0.000000 0.000000 0.000000 0.000000 0.000000 0.000000 0.000000 
-10.137740 17.101034 -2.635189 29.437304 83.517364 40.622627 -5.917174 -1.160317 -2.069696 -2.188390 -0.897339 -3.588354 -7.888978 -1.078461 -0.350315 11.819980 -1.972421 -5.625417 -4.827733 -0.385426 0.441795 0.000000 0.000000 0.000000 -4.675947 5.966871 2.334395 -66.245904 0.994535 12.506591 -3.623280 -17.276570 -0.004350 2.519379 3.839279 0.086827 -0.068263 0.005277 -0.000000 0.000000 0.000000 0.000000 0.000000 0.000000 0.000000 22.782894 1.538377 1.087171 72.095909 10.392359 3.891592 2.990470 21.454640 0.010061 2.319144 6.176961 0.125904 0.039815 -0.113754 -0.000000 0.000000 0.000000 0.000000 0.000000 0.000000 0.000000 
-10.001330 17.125481 -2.649784 27.592038 83.340445 38.670502 -5.714072 -1.214133 -1.939097 -2.144496 -0.963303 -3.562667 -7.900543 -1.142809 -0.358442 11.781295 -1.963588 -5.580685 -4.841268 -0.386248 0.453468 0.000000 0.000000 0.000000 -4.695028 5.728754 2.346228 -66.197497 0.395648 13.015695 -3.603774 -17.422613 -0.004412 2.655389 3.763039 0.089543 -0.068652 0.008432 -0.000000 0.000000 0.000000 0.000000 0.000000 0.000000 0.000000 22.798029 1.438210 1.100906 72.034187 10.063257 3.683080 3.016427 21.092728 0.010039 2.423522 6.084923 0.129589 0.039883 -0.110390 -0.000000 0.000000 0.000000 0.000000 0.000000 0.000000 0.000000 
-9.866085 17.150243 -2.664484 25.822886 83.206638 36.780479 -5.476816 -1.274510 -1.797409 -2.094309 -1.037848 -3.535179 -7.912790 -1.215264 -0.368786 11.742556 -1.964854 -5.528175 -4.854405 -0.387079 0.467553 0.000000 0.000000 0.000000 -4.705988 5.455160 2.358991 -66.144618 -0.196209 13.493655 -3.584456 -17.601745 -0.004490 2.787253 3.681374 0.091760 -0.069186 0.011664 0.000000 0.000000 0.000000 0.000000 0.000000 0.000000 0.000000 22.810418 1.317483 1.113212 71.957480 9.732919 3.433310 3.041762 20.747751 0.009984 2.501775 5.999096 0.131874 0.040123 -0.107113 -0.000000 0.000000 0.000000 0.000000 0.000000 0.000000 0.000000 
-9.731304 17.174898 -2.678829 24.193806 83.124008 35.038680 -5.216234 -1.345023 -1.666349 -2.039664 -1.124045 -3.507902 -7.925015 -1.298914 -0.373580 11.706804 -1.979647 -5.475407 -4.866032 -0.387794 0.482072 0.000000 0.000000 0.000000 -4.704644 5.183158 2.371115 -66.083176 -0.817225 13.975076 -3.567273 -17.799553 -0.004609 2.903714 3.603686 0.093478 -0.070027 0.015073 0.000000 0.000000 0.000000 0.000000 0.000000 0.000000 0.000000 22.819905 1.174001 1.119240 71.871085 9.393130 3.138009 3.065386 20.432906 0.009888 2.551394 5.917632 0.132659 0.040530 -0.103876 -0.000000 0.000000 0.000000 0.000000 0.000000 0.000000 0.000000 
-9.596949 17.199105 -2.692552 22.684042 83.092392 33.426676 -4.937624 -1.423956 -1.548970 -1.981605 -1.219908 -3.482832 -7.937021 -1.392094 -0.378693 11.674264 -2.005801 -5.416876 -4.875951 -0.388462 0.498636 0.000000 0.000000 0.000000 -4.685966 4.881133 2.383397 -66.016279 -1.429407 14.427950 -3.551919 -18.032068 -0.004749 3.000735 3.526370 0.094398 -0.071106 0.018554 0.000000 0.000000 0.000000 0.000000 0.000000 0.000000 0.000000 22.824424 1.010373 1.122184 71.778951 9.034338 2.791447 3.086993 20.149669 0.009759 2.572259 5.840664 0.131944 0.041081 -0.100743 -0.000000 0.000000 0.000000 0.000000 0.000000 0.000000 0.000000 
-9.462959 17.222546 -2.705467 21.256160 83.108188 31.909019 -4.645062 -1.509632 -1.445555 -1.920878 -1.323503 -3.459064 -7.948725 -1.492741 -0.380003 11.646854 -2.052936 -5.359133 -4.883715 -0.388993 0.515398 0.000000 0.000000 0.000000 -4.650803 4.566802 2.394280 -65.940260 -2.052870 14.869276 -3.538978 -18.292770 -0.004911 3.073767 3.450640 0.094518 -0.072475 0.022121 0.000000 0.000000 0.000000 0.000000 0.000000 0.000000 0.000000 22.826303 0.819151 1.121345 71.680143 8.668408 2.418365 3.106597 19.895457 0.009601 2.560313 5.771181 0.129629 0.041820 -0.097726 -0.000000 0.000000 0.000000 0.000000 0.000000 0.000000 0.000000 
